<svg xmlns="http://www.w3.org/2000/svg" xmlns:xlink="http://www.w3.org/1999/xlink" version="1.1" class="marks" width="1246" height="347" viewBox="0 0 1246 347"><rect width="1246" height="347" fill="white"/><g fill="none" stroke-miterlimit="10" transform="translate(41,10)"><g class="mark-group role-frame root" role="graphics-object" aria-roledescription="group mark container"><g transform="translate(0,0)"><path class="background" aria-hidden="true" d="M0.5,0.5h1200v300h-1200Z" stroke="#ddd"/><g><g class="mark-group role-axis" aria-hidden="true"><g transform="translate(0.5,300.5)"><path class="background" aria-hidden="true" d="M0,0h0v0h0Z" pointer-events="none"/><g><g class="mark-rule role-axis-grid" pointer-events="none"><line transform="translate(414,-300)" x2="0" y2="300" stroke="#ddd" stroke-width="1" opacity="1"/><line transform="translate(582,-300)" x2="0" y2="300" stroke="#ddd" stroke-width="1" opacity="1"/><line transform="translate(750,-300)" x2="0" y2="300" stroke="#ddd" stroke-width="1" opacity="1"/><line transform="translate(835,-300)" x2="0" y2="300" stroke="#ddd" stroke-width="1" opacity="1"/><line transform="translate(1003,-300)" x2="0" y2="300" stroke="#ddd" stroke-width="1" opacity="1"/><line transform="translate(1171,-300)" x2="0" y2="300" stroke="#ddd" stroke-width="1" opacity="1"/><line transform="translate(389,-300)" x2="0" y2="300" stroke="#ddd" stroke-width="1" opacity="1"/><line transform="translate(438,-300)" x2="0" y2="300" stroke="#ddd" stroke-width="1" opacity="1"/><line transform="translate(462,-300)" x2="0" y2="300" stroke="#ddd" stroke-width="1" opacity="1"/><line transform="translate(486,-300)" x2="0" y2="300" stroke="#ddd" stroke-width="1" opacity="1"/><line transform="translate(510,-300)" x2="0" y2="300" stroke="#ddd" stroke-width="1" opacity="1"/><line transform="translate(534,-300)" x2="0" y2="300" stroke="#ddd" stroke-width="1" opacity="1"/><line transform="translate(558,-300)" x2="0" y2="300" stroke="#ddd" stroke-width="1" opacity="1"/><line transform="translate(606,-300)" x2="0" y2="300" stroke="#ddd" stroke-width="1" opacity="1"/><line transform="translate(630,-300)" x2="0" y2="300" stroke="#ddd" stroke-width="1" opacity="1"/><line transform="translate(654,-300)" x2="0" y2="300" stroke="#ddd" stroke-width="1" opacity="1"/><line transform="translate(678,-300)" x2="0" y2="300" stroke="#ddd" stroke-width="1" opacity="1"/><line transform="translate(702,-300)" x2="0" y2="300" stroke="#ddd" stroke-width="1" opacity="1"/><line transform="translate(726,-300)" x2="0" y2="300" stroke="#ddd" stroke-width="1" opacity="1"/><line transform="translate(774,-300)" x2="0" y2="300" stroke="#ddd" stroke-width="1" opacity="1"/><line transform="translate(786,-300)" x2="0" y2="300" stroke="#ddd" stroke-width="1" opacity="1"/><line transform="translate(811,-300)" x2="0" y2="300" stroke="#ddd" stroke-width="1" opacity="1"/><line transform="translate(859,-300)" x2="0" y2="300" stroke="#ddd" stroke-width="1" opacity="1"/><line transform="translate(883,-300)" x2="0" y2="300" stroke="#ddd" stroke-width="1" opacity="1"/><line transform="translate(907,-300)" x2="0" y2="300" stroke="#ddd" stroke-width="1" opacity="1"/><line transform="translate(931,-300)" x2="0" y2="300" stroke="#ddd" stroke-width="1" opacity="1"/><line transform="translate(955,-300)" x2="0" y2="300" stroke="#ddd" stroke-width="1" opacity="1"/><line transform="translate(979,-300)" x2="0" y2="300" stroke="#ddd" stroke-width="1" opacity="1"/><line transform="translate(1027,-300)" x2="0" y2="300" stroke="#ddd" stroke-width="1" opacity="1"/><line transform="translate(1051,-300)" x2="0" y2="300" stroke="#ddd" stroke-width="1" opacity="1"/><line transform="translate(1075,-300)" x2="0" y2="300" stroke="#ddd" stroke-width="1" opacity="1"/><line transform="translate(1099,-300)" x2="0" y2="300" stroke="#ddd" stroke-width="1" opacity="1"/><line transform="translate(1123,-300)" x2="0" y2="300" stroke="#ddd" stroke-width="1" opacity="1"/><line transform="translate(1147,-300)" x2="0" y2="300" stroke="#ddd" stroke-width="1" opacity="1"/><line transform="translate(1195,-300)" x2="0" y2="300" stroke="#ddd" stroke-width="1" opacity="1"/><line transform="translate(17,-300)" x2="0" y2="300" stroke="#ddd" stroke-width="1" opacity="1"/><line transform="translate(41,-300)" x2="0" y2="300" stroke="#ddd" stroke-width="1" opacity="1"/><line transform="translate(53,-300)" x2="0" y2="300" stroke="#ddd" stroke-width="1" opacity="1"/><line transform="translate(77,-300)" x2="0" y2="300" stroke="#ddd" stroke-width="1" opacity="1"/><line transform="translate(101,-300)" x2="0" y2="300" stroke="#ddd" stroke-width="1" opacity="1"/><line transform="translate(125,-300)" x2="0" y2="300" stroke="#ddd" stroke-width="1" opacity="1"/><line transform="translate(149,-300)" x2="0" y2="300" stroke="#ddd" stroke-width="1" opacity="1"/><line transform="translate(173,-300)" x2="0" y2="300" stroke="#ddd" stroke-width="1" opacity="1"/><line transform="translate(197,-300)" x2="0" y2="300" stroke="#ddd" stroke-width="1" opacity="1"/><line transform="translate(221,-300)" x2="0" y2="300" stroke="#ddd" stroke-width="1" opacity="1"/><line transform="translate(245,-300)" x2="0" y2="300" stroke="#ddd" stroke-width="1" opacity="1"/><line transform="translate(269,-300)" x2="0" y2="300" stroke="#ddd" stroke-width="1" opacity="1"/><line transform="translate(293,-300)" x2="0" y2="300" stroke="#ddd" stroke-width="1" opacity="1"/><line transform="translate(317,-300)" x2="0" y2="300" stroke="#ddd" stroke-width="1" opacity="1"/><line transform="translate(341,-300)" x2="0" y2="300" stroke="#ddd" stroke-width="1" opacity="1"/><line transform="translate(365,-300)" x2="0" y2="300" stroke="#ddd" stroke-width="1" opacity="1"/></g></g><path class="foreground" aria-hidden="true" d="" pointer-events="none" display="none"/></g></g><g class="mark-group role-axis" aria-hidden="true"><g transform="translate(0.5,0.5)"><path class="background" aria-hidden="true" d="M0,0h0v0h0Z" pointer-events="none"/><g><g class="mark-rule role-axis-grid" pointer-events="none"><line transform="translate(0,300)" x2="1200" y2="0" stroke="#ddd" stroke-width="1" opacity="1"/><line transform="translate(0,270)" x2="1200" y2="0" stroke="#ddd" stroke-width="1" opacity="1"/><line transform="translate(0,240)" x2="1200" y2="0" stroke="#ddd" stroke-width="1" opacity="1"/><line transform="translate(0,210)" x2="1200" y2="0" stroke="#ddd" stroke-width="1" opacity="1"/><line transform="translate(0,180)" x2="1200" y2="0" stroke="#ddd" stroke-width="1" opacity="1"/><line transform="translate(0,150)" x2="1200" y2="0" stroke="#ddd" stroke-width="1" opacity="1"/><line transform="translate(0,120)" x2="1200" y2="0" stroke="#ddd" stroke-width="1" opacity="1"/><line transform="translate(0,90)" x2="1200" y2="0" stroke="#ddd" stroke-width="1" opacity="1"/><line transform="translate(0,60)" x2="1200" y2="0" stroke="#ddd" stroke-width="1" opacity="1"/><line transform="translate(0,30)" x2="1200" y2="0" stroke="#ddd" stroke-width="1" opacity="1"/><line transform="translate(0,0)" x2="1200" y2="0" stroke="#ddd" stroke-width="1" opacity="1"/></g></g><path class="foreground" aria-hidden="true" d="" pointer-events="none" display="none"/></g></g><g class="mark-group role-axis" role="graphics-symbol" aria-roledescription="axis" aria-label="X-axis titled 'date' for a time scale with values from Sunday, 27 August 2023, 2:00:45 PM to Tuesday, 05 December 2023, 9:59:14 AM"><g transform="translate(0.5,300.5)"><path class="background" aria-hidden="true" d="M0,0h0v0h0Z" pointer-events="none"/><g><g class="mark-rule role-axis-tick" pointer-events="none"><line transform="translate(414,0)" x2="0" y2="5" stroke="#888" stroke-width="1" opacity="1"/><line transform="translate(582,0)" x2="0" y2="5" stroke="#888" stroke-width="1" opacity="1"/><line transform="translate(750,0)" x2="0" y2="5" stroke="#888" stroke-width="1" opacity="1"/><line transform="translate(835,0)" x2="0" y2="5" stroke="#888" stroke-width="1" opacity="1"/><line transform="translate(1003,0)" x2="0" y2="5" stroke="#888" stroke-width="1" opacity="1"/><line transform="translate(1171,0)" x2="0" y2="5" stroke="#888" stroke-width="1" opacity="1"/><line transform="translate(389,0)" x2="0" y2="5" stroke="#888" stroke-width="1" opacity="1"/><line transform="translate(438,0)" x2="0" y2="5" stroke="#888" stroke-width="1" opacity="1"/><line transform="translate(462,0)" x2="0" y2="5" stroke="#888" stroke-width="1" opacity="1"/><line transform="translate(486,0)" x2="0" y2="5" stroke="#888" stroke-width="1" opacity="1"/><line transform="translate(510,0)" x2="0" y2="5" stroke="#888" stroke-width="1" opacity="1"/><line transform="translate(534,0)" x2="0" y2="5" stroke="#888" stroke-width="1" opacity="1"/><line transform="translate(558,0)" x2="0" y2="5" stroke="#888" stroke-width="1" opacity="1"/><line transform="translate(606,0)" x2="0" y2="5" stroke="#888" stroke-width="1" opacity="1"/><line transform="translate(630,0)" x2="0" y2="5" stroke="#888" stroke-width="1" opacity="1"/><line transform="translate(654,0)" x2="0" y2="5" stroke="#888" stroke-width="1" opacity="1"/><line transform="translate(678,0)" x2="0" y2="5" stroke="#888" stroke-width="1" opacity="1"/><line transform="translate(702,0)" x2="0" y2="5" stroke="#888" stroke-width="1" opacity="1"/><line transform="translate(726,0)" x2="0" y2="5" stroke="#888" stroke-width="1" opacity="1"/><line transform="translate(774,0)" x2="0" y2="5" stroke="#888" stroke-width="1" opacity="1"/><line transform="translate(786,0)" x2="0" y2="5" stroke="#888" stroke-width="1" opacity="1"/><line transform="translate(811,0)" x2="0" y2="5" stroke="#888" stroke-width="1" opacity="1"/><line transform="translate(859,0)" x2="0" y2="5" stroke="#888" stroke-width="1" opacity="1"/><line transform="translate(883,0)" x2="0" y2="5" stroke="#888" stroke-width="1" opacity="1"/><line transform="translate(907,0)" x2="0" y2="5" stroke="#888" stroke-width="1" opacity="1"/><line transform="translate(931,0)" x2="0" y2="5" stroke="#888" stroke-width="1" opacity="1"/><line transform="translate(955,0)" x2="0" y2="5" stroke="#888" stroke-width="1" opacity="1"/><line transform="translate(979,0)" x2="0" y2="5" stroke="#888" stroke-width="1" opacity="1"/><line transform="translate(1027,0)" x2="0" y2="5" stroke="#888" stroke-width="1" opacity="1"/><line transform="translate(1051,0)" x2="0" y2="5" stroke="#888" stroke-width="1" opacity="1"/><line transform="translate(1075,0)" x2="0" y2="5" stroke="#888" stroke-width="1" opacity="1"/><line transform="translate(1099,0)" x2="0" y2="5" stroke="#888" stroke-width="1" opacity="1"/><line transform="translate(1123,0)" x2="0" y2="5" stroke="#888" stroke-width="1" opacity="1"/><line transform="translate(1147,0)" x2="0" y2="5" stroke="#888" stroke-width="1" opacity="1"/><line transform="translate(1195,0)" x2="0" y2="5" stroke="#888" stroke-width="1" opacity="1"/><line transform="translate(17,0)" x2="0" y2="5" stroke="#888" stroke-width="1" opacity="1"/><line transform="translate(41,0)" x2="0" y2="5" stroke="#888" stroke-width="1" opacity="1"/><line transform="translate(53,0)" x2="0" y2="5" stroke="#888" stroke-width="1" opacity="1"/><line transform="translate(77,0)" x2="0" y2="5" stroke="#888" stroke-width="1" opacity="1"/><line transform="translate(101,0)" x2="0" y2="5" stroke="#888" stroke-width="1" opacity="1"/><line transform="translate(125,0)" x2="0" y2="5" stroke="#888" stroke-width="1" opacity="1"/><line transform="translate(149,0)" x2="0" y2="5" stroke="#888" stroke-width="1" opacity="1"/><line transform="translate(173,0)" x2="0" y2="5" stroke="#888" stroke-width="1" opacity="1"/><line transform="translate(197,0)" x2="0" y2="5" stroke="#888" stroke-width="1" opacity="1"/><line transform="translate(221,0)" x2="0" y2="5" stroke="#888" stroke-width="1" opacity="1"/><line transform="translate(245,0)" x2="0" y2="5" stroke="#888" stroke-width="1" opacity="1"/><line transform="translate(269,0)" x2="0" y2="5" stroke="#888" stroke-width="1" opacity="1"/><line transform="translate(293,0)" x2="0" y2="5" stroke="#888" stroke-width="1" opacity="1"/><line transform="translate(317,0)" x2="0" y2="5" stroke="#888" stroke-width="1" opacity="1"/><line transform="translate(341,0)" x2="0" y2="5" stroke="#888" stroke-width="1" opacity="1"/><line transform="translate(365,0)" x2="0" y2="5" stroke="#888" stroke-width="1" opacity="1"/></g><g class="mark-text role-axis-label" pointer-events="none"><text text-anchor="middle" transform="translate(413.51493484621307,15)" font-family="sans-serif" font-size="10px" fill="#000" opacity="0">October</text><text text-anchor="middle" transform="translate(581.7269668328847,15)" font-family="sans-serif" font-size="10px" fill="#000" opacity="1">Oct 15</text><text text-anchor="middle" transform="translate(749.9389988195564,15)" font-family="sans-serif" font-size="10px" fill="#000" opacity="0">Oct 29</text><text text-anchor="middle" transform="translate(834.5456458604715,15)" font-family="sans-serif" font-size="10px" fill="#000" opacity="0">Nov 05</text><text text-anchor="middle" transform="translate(1002.7576778471432,15)" font-family="sans-serif" font-size="10px" fill="#000" opacity="0">Nov 19</text><text text-anchor="middle" transform="translate(1170.969709833815,15)" font-family="sans-serif" font-size="10px" fill="#000" opacity="0">Dec 03</text><text text-anchor="middle" transform="translate(389.4846445624028,15)" font-family="sans-serif" font-size="10px" fill="#000" opacity="1">Fri 29</text><text text-anchor="middle" transform="translate(437.5452251300233,15)" font-family="sans-serif" font-size="10px" fill="#000" opacity="0">Tue 03</text><text text-anchor="middle" transform="translate(461.57551541383356,15)" font-family="sans-serif" font-size="10px" fill="#000" opacity="0">Thu 05</text><text text-anchor="middle" transform="translate(485.6058056976438,15)" font-family="sans-serif" font-size="10px" fill="#000" opacity="1">Sat 07</text><text text-anchor="middle" transform="translate(509.636095981454,15)" font-family="sans-serif" font-size="10px" fill="#000" opacity="0">Mon 09</text><text text-anchor="middle" transform="translate(533.6663862652642,15)" font-family="sans-serif" font-size="10px" fill="#000" opacity="0">Wed 11</text><text text-anchor="middle" transform="translate(557.6966765490745,15)" font-family="sans-serif" font-size="10px" fill="#000" opacity="0">Fri 13</text><text text-anchor="middle" transform="translate(605.757257116695,15)" font-family="sans-serif" font-size="10px" fill="#000" opacity="0">Tue 17</text><text text-anchor="middle" transform="translate(629.7875474005051,15)" font-family="sans-serif" font-size="10px" fill="#000" opacity="0">Thu 19</text><text text-anchor="middle" transform="translate(653.8178376843155,15)" font-family="sans-serif" font-size="10px" fill="#000" opacity="0">Sat 21</text><text text-anchor="middle" transform="translate(677.8481279681257,15)" font-family="sans-serif" font-size="10px" fill="#000" opacity="1">Mon 23</text><text text-anchor="middle" transform="translate(701.8784182519358,15)" font-family="sans-serif" font-size="10px" fill="#000" opacity="0">Wed 25</text><text text-anchor="middle" transform="translate(725.9087085357461,15)" font-family="sans-serif" font-size="10px" fill="#000" opacity="0">Fri 27</text><text text-anchor="middle" transform="translate(774.469920150946,15)" font-family="sans-serif" font-size="10px" fill="#000" opacity="1">Tue 31</text><text text-anchor="middle" transform="translate(786.4850652928511,15)" font-family="sans-serif" font-size="10px" fill="#000" opacity="0">November</text><text text-anchor="middle" transform="translate(810.5153555766612,15)" font-family="sans-serif" font-size="10px" fill="#000" opacity="0">Fri 03</text><text text-anchor="middle" transform="translate(858.5759361442819,15)" font-family="sans-serif" font-size="10px" fill="#000" opacity="1">Tue 07</text><text text-anchor="middle" transform="translate(882.6062264280921,15)" font-family="sans-serif" font-size="10px" fill="#000" opacity="0">Thu 09</text><text text-anchor="middle" transform="translate(906.6365167119022,15)" font-family="sans-serif" font-size="10px" fill="#000" opacity="0">Sat 11</text><text text-anchor="middle" transform="translate(930.6668069957125,15)" font-family="sans-serif" font-size="10px" fill="#000" opacity="0">Mon 13</text><text text-anchor="middle" transform="translate(954.6970972795228,15)" font-family="sans-serif" font-size="10px" fill="#000" opacity="1">Wed 15</text><text text-anchor="middle" transform="translate(978.727387563333,15)" font-family="sans-serif" font-size="10px" fill="#000" opacity="0">Fri 17</text><text text-anchor="middle" transform="translate(1026.7879681309535,15)" font-family="sans-serif" font-size="10px" fill="#000" opacity="0">Tue 21</text><text text-anchor="middle" transform="translate(1050.8182584147637,15)" font-family="sans-serif" font-size="10px" fill="#000" opacity="1">Thu 23</text><text text-anchor="middle" transform="translate(1074.848548698574,15)" font-family="sans-serif" font-size="10px" fill="#000" opacity="0">Sat 25</text><text text-anchor="middle" transform="translate(1098.8788389823842,15)" font-family="sans-serif" font-size="10px" fill="#000" opacity="0">Mon 27</text><text text-anchor="middle" transform="translate(1122.9091292661944,15)" font-family="sans-serif" font-size="10px" fill="#000" opacity="0">Wed 29</text><text text-anchor="middle" transform="translate(1146.9394195500047,15)" font-family="sans-serif" font-size="10px" fill="#000" opacity="1">December</text><text text-anchor="middle" transform="translate(1195.0000001176252,15)" font-family="sans-serif" font-size="10px" fill="#000" opacity="0">Tue 05</text><text text-anchor="middle" transform="translate(17.01514516334418,15)" font-family="sans-serif" font-size="10px" fill="#000" opacity="1">Tue 29</text><text text-anchor="middle" transform="translate(41.04543544715442,15)" font-family="sans-serif" font-size="10px" fill="#000" opacity="0">Thu 31</text><text text-anchor="middle" transform="translate(53.06058058905953,15)" font-family="sans-serif" font-size="10px" fill="#000" opacity="0">September</text><text text-anchor="middle" transform="translate(77.09087087286977,15)" font-family="sans-serif" font-size="10px" fill="#000" opacity="0">Sep 03</text><text text-anchor="middle" transform="translate(101.12116115668002,15)" font-family="sans-serif" font-size="10px" fill="#000" opacity="1">Tue 05</text><text text-anchor="middle" transform="translate(125.15145144049023,15)" font-family="sans-serif" font-size="10px" fill="#000" opacity="0">Thu 07</text><text text-anchor="middle" transform="translate(149.18174172430048,15)" font-family="sans-serif" font-size="10px" fill="#000" opacity="0">Sat 09</text><text text-anchor="middle" transform="translate(173.21203200811073,15)" font-family="sans-serif" font-size="10px" fill="#000" opacity="0">Mon 11</text><text text-anchor="middle" transform="translate(197.24232229192097,15)" font-family="sans-serif" font-size="10px" fill="#000" opacity="1">Wed 13</text><text text-anchor="middle" transform="translate(221.2726125757312,15)" font-family="sans-serif" font-size="10px" fill="#000" opacity="0">Fri 15</text><text text-anchor="middle" transform="translate(245.3029028595414,15)" font-family="sans-serif" font-size="10px" fill="#000" opacity="0">Sep 17</text><text text-anchor="middle" transform="translate(269.33319314335165,15)" font-family="sans-serif" font-size="10px" fill="#000" opacity="0">Tue 19</text><text text-anchor="middle" transform="translate(293.3634834271619,15)" font-family="sans-serif" font-size="10px" fill="#000" opacity="1">Thu 21</text><text text-anchor="middle" transform="translate(317.39377371097214,15)" font-family="sans-serif" font-size="10px" fill="#000" opacity="0">Sat 23</text><text text-anchor="middle" transform="translate(341.42406399478233,15)" font-family="sans-serif" font-size="10px" fill="#000" opacity="0">Mon 25</text><text text-anchor="middle" transform="translate(365.45435427859263,15)" font-family="sans-serif" font-size="10px" fill="#000" opacity="0">Wed 27</text></g><g class="mark-rule role-axis-domain" pointer-events="none"><line transform="translate(0,0)" x2="1200" y2="0" stroke="#888" stroke-width="1" opacity="1"/></g><g class="mark-text role-axis-title" pointer-events="none"><text text-anchor="middle" transform="translate(600,30)" font-family="sans-serif" font-size="11px" font-weight="bold" fill="#000" opacity="1">date</text></g></g><path class="foreground" aria-hidden="true" d="" pointer-events="none" display="none"/></g></g><g class="mark-group role-axis" role="graphics-symbol" aria-roledescription="axis" aria-label="Y-axis titled 'precipitation' for a linear scale with values from 0 to 5"><g transform="translate(0.5,0.5)"><path class="background" aria-hidden="true" d="M0,0h0v0h0Z" pointer-events="none"/><g><g class="mark-rule role-axis-tick" pointer-events="none"><line transform="translate(0,300)" x2="-5" y2="0" stroke="#888" stroke-width="1" opacity="1"/><line transform="translate(0,270)" x2="-5" y2="0" stroke="#888" stroke-width="1" opacity="1"/><line transform="translate(0,240)" x2="-5" y2="0" stroke="#888" stroke-width="1" opacity="1"/><line transform="translate(0,210)" x2="-5" y2="0" stroke="#888" stroke-width="1" opacity="1"/><line transform="translate(0,180)" x2="-5" y2="0" stroke="#888" stroke-width="1" opacity="1"/><line transform="translate(0,150)" x2="-5" y2="0" stroke="#888" stroke-width="1" opacity="1"/><line transform="translate(0,120)" x2="-5" y2="0" stroke="#888" stroke-width="1" opacity="1"/><line transform="translate(0,90)" x2="-5" y2="0" stroke="#888" stroke-width="1" opacity="1"/><line transform="translate(0,60)" x2="-5" y2="0" stroke="#888" stroke-width="1" opacity="1"/><line transform="translate(0,30)" x2="-5" y2="0" stroke="#888" stroke-width="1" opacity="1"/><line transform="translate(0,0)" x2="-5" y2="0" stroke="#888" stroke-width="1" opacity="1"/></g><g class="mark-text role-axis-label" pointer-events="none"><text text-anchor="end" transform="translate(-7,303)" font-family="sans-serif" font-size="10px" fill="#000" opacity="1">0.0</text><text text-anchor="end" transform="translate(-7,273)" font-family="sans-serif" font-size="10px" fill="#000" opacity="1">0.5</text><text text-anchor="end" transform="translate(-7,243)" font-family="sans-serif" font-size="10px" fill="#000" opacity="1">1.0</text><text text-anchor="end" transform="translate(-7,213)" font-family="sans-serif" font-size="10px" fill="#000" opacity="1">1.5</text><text text-anchor="end" transform="translate(-7,183)" font-family="sans-serif" font-size="10px" fill="#000" opacity="1">2.0</text><text text-anchor="end" transform="translate(-7,153)" font-family="sans-serif" font-size="10px" fill="#000" opacity="1">2.5</text><text text-anchor="end" transform="translate(-7,123)" font-family="sans-serif" font-size="10px" fill="#000" opacity="1">3.0</text><text text-anchor="end" transform="translate(-7,93.00000000000001)" font-family="sans-serif" font-size="10px" fill="#000" opacity="1">3.5</text><text text-anchor="end" transform="translate(-7,62.999999999999986)" font-family="sans-serif" font-size="10px" fill="#000" opacity="1">4.0</text><text text-anchor="end" transform="translate(-7,32.99999999999999)" font-family="sans-serif" font-size="10px" fill="#000" opacity="1">4.5</text><text text-anchor="end" transform="translate(-7,3)" font-family="sans-serif" font-size="10px" fill="#000" opacity="1">5.0</text></g><g class="mark-rule role-axis-domain" pointer-events="none"><line transform="translate(0,300)" x2="0" y2="-300" stroke="#888" stroke-width="1" opacity="1"/></g><g class="mark-text role-axis-title" pointer-events="none"><text text-anchor="middle" transform="translate(-24.9013671875,150) rotate(-90) translate(0,-2)" font-family="sans-serif" font-size="11px" font-weight="bold" fill="#000" opacity="1">precipitation</text></g></g><path class="foreground" aria-hidden="true" d="" pointer-events="none" display="none"/></g></g><g class="mark-rule role-mark view_16_marks" clip-path="url(#clip1)" role="graphics-object" aria-roledescription="rule mark container"><line aria-label="date: Nov 26, 2023" role="graphics-symbol" aria-roledescription="rule mark" transform="translate(1087.3643248880585,0)" x2="0" y2="300" stroke="black"/></g><g class="mark-rect role-mark layer_1_marks" clip-path="url(#clip2)" role="graphics-object" aria-roledescription="rect mark container"><path aria-label="date: Aug 28, 2023; precipitation: 1" role="graphics-symbol" aria-roledescription="bar" d="M2.500000021439061,240h5v60h-5Z" fill="orange"/><path aria-label="date: Aug 29, 2023; precipitation: 0.4" role="graphics-symbol" aria-roledescription="bar" d="M14.51514516334418,276h5v24h-5Z" fill="orange"/><path aria-label="date: Aug 30, 2023; precipitation: 3.5" role="graphics-symbol" aria-roledescription="bar" d="M26.5302903052493,90.00000000000001h5v210h-5Z" fill="orange"/><path aria-label="date: Aug 31, 2023; precipitation: 0.5" role="graphics-symbol" aria-roledescription="bar" d="M38.54543544715442,270h5v30h-5Z" fill="orange"/><path aria-label="date: Sep 01, 2023; precipitation: 0.5" role="graphics-symbol" aria-roledescription="bar" d="M50.56058058905953,270h5v30h-5Z" fill="orange"/><path aria-label="date: Sep 02, 2023; precipitation: 0.9" role="graphics-symbol" aria-roledescription="bar" d="M62.57572573096465,246.00000000000003h5v53.99999999999997h-5Z" fill="orange"/><path aria-label="date: Sep 03, 2023; precipitation: 1.1" role="graphics-symbol" aria-roledescription="bar" d="M74.59087087286977,234h5v66h-5Z" fill="orange"/><path aria-label="date: Sep 04, 2023; precipitation: 0.5" role="graphics-symbol" aria-roledescription="bar" d="M86.6060160147749,270h5v30h-5Z" fill="orange"/><path aria-label="date: Sep 05, 2023; precipitation: 0.4" role="graphics-symbol" aria-roledescription="bar" d="M98.62116115668002,276h5v24h-5Z" fill="orange"/><path aria-label="date: Sep 06, 2023; precipitation: 0.4" role="graphics-symbol" aria-roledescription="bar" d="M110.63630629858511,276h5v24h-5Z" fill="orange"/><path aria-label="date: Sep 07, 2023; precipitation: 0.4" role="graphics-symbol" aria-roledescription="bar" d="M122.65145144049023,276h5v24h-5Z" fill="orange"/><path aria-label="date: Sep 08, 2023; precipitation: 0.3" role="graphics-symbol" aria-roledescription="bar" d="M134.66659658239536,282h5v18h-5Z" fill="orange"/><path aria-label="date: Sep 09, 2023; precipitation: 1.8" role="graphics-symbol" aria-roledescription="bar" d="M146.68174172430048,192h5v108h-5Z" fill="orange"/><path aria-label="date: Sep 10, 2023; precipitation: 0.4" role="graphics-symbol" aria-roledescription="bar" d="M158.69688686620557,276h5v24h-5Z" fill="orange"/><path aria-label="date: Sep 11, 2023; precipitation: 0.5" role="graphics-symbol" aria-roledescription="bar" d="M170.71203200811073,270h5v30h-5Z" fill="orange"/><path aria-label="date: Sep 12, 2023; precipitation: 3.2" role="graphics-symbol" aria-roledescription="bar" d="M182.72717715001582,108h5v192h-5Z" fill="orange"/><path aria-label="date: Sep 13, 2023; precipitation: 1.4" role="graphics-symbol" aria-roledescription="bar" d="M194.74232229192097,216h5v84h-5Z" fill="orange"/><path aria-label="date: Sep 14, 2023; precipitation: 0.3" role="graphics-symbol" aria-roledescription="bar" d="M206.75746743382606,282h5v18h-5Z" fill="orange"/><path aria-label="date: Sep 15, 2023; precipitation: 1.3" role="graphics-symbol" aria-roledescription="bar" d="M218.7726125757312,222h5v78h-5Z" fill="orange"/><path aria-label="date: Sep 16, 2023; precipitation: 0.9" role="graphics-symbol" aria-roledescription="bar" d="M230.7877577176363,246.00000000000003h5v53.99999999999997h-5Z" fill="orange"/><path aria-label="date: Sep 17, 2023; precipitation: 1.1" role="graphics-symbol" aria-roledescription="bar" d="M242.8029028595414,234h5v66h-5Z" fill="orange"/><path aria-label="date: Sep 18, 2023; precipitation: 0.2" role="graphics-symbol" aria-roledescription="bar" d="M254.81804800144653,288h5v12h-5Z" fill="orange"/><path aria-label="date: Sep 19, 2023; precipitation: 0.2" role="graphics-symbol" aria-roledescription="bar" d="M266.83319314335165,288h5v12h-5Z" fill="orange"/><path aria-label="date: Sep 20, 2023; precipitation: 0.5" role="graphics-symbol" aria-roledescription="bar" d="M278.8483382852568,270h5v30h-5Z" fill="orange"/><path aria-label="date: Sep 21, 2023; precipitation: 0.1" role="graphics-symbol" aria-roledescription="bar" d="M290.8634834271619,294h5v6h-5Z" fill="orange"/><path aria-label="date: Sep 22, 2023; precipitation: 4.5" role="graphics-symbol" aria-roledescription="bar" d="M302.878628569067,29.999999999999993h5v270h-5Z" fill="orange"/><path aria-label="date: Sep 23, 2023; precipitation: 4.8" role="graphics-symbol" aria-roledescription="bar" d="M314.89377371097214,12.00000000000001h5v288h-5Z" fill="orange"/><path aria-label="date: Sep 24, 2023; precipitation: 0.6" role="graphics-symbol" aria-roledescription="bar" d="M326.90891885287726,264h5v36h-5Z" fill="orange"/><path aria-label="date: Sep 25, 2023; precipitation: 0.1" role="graphics-symbol" aria-roledescription="bar" d="M338.92406399478233,294h5v6h-5Z" fill="orange"/><path aria-label="date: Sep 26, 2023; precipitation: 0.2" role="graphics-symbol" aria-roledescription="bar" d="M350.93920913668745,288h5v12h-5Z" fill="orange"/><path aria-label="date: Sep 27, 2023; precipitation: 0.3" role="graphics-symbol" aria-roledescription="bar" d="M362.95435427859263,282h5v18h-5Z" fill="orange"/><path aria-label="date: Sep 28, 2023; precipitation: 0.5" role="graphics-symbol" aria-roledescription="bar" d="M374.96949942049775,270h5v30h-5Z" fill="orange"/><path aria-label="date: Sep 29, 2023; precipitation: 1.1" role="graphics-symbol" aria-roledescription="bar" d="M386.9846445624028,234h5v66h-5Z" fill="orange"/><path aria-label="date: Sep 30, 2023; precipitation: 0.5" role="graphics-symbol" aria-roledescription="bar" d="M398.99978970430794,270h5v30h-5Z" fill="orange"/><path aria-label="date: Oct 01, 2023; precipitation: 1" role="graphics-symbol" aria-roledescription="bar" d="M411.01493484621307,240h5v60h-5Z" fill="orange"/><path aria-label="date: Oct 02, 2023; precipitation: 0.5" role="graphics-symbol" aria-roledescription="bar" d="M423.03007998811813,270h5v30h-5Z" fill="orange"/><path aria-label="date: Oct 03, 2023; precipitation: 0.3" role="graphics-symbol" aria-roledescription="bar" d="M435.0452251300233,282h5v18h-5Z" fill="orange"/><path aria-label="date: Oct 04, 2023; precipitation: 0.5" role="graphics-symbol" aria-roledescription="bar" d="M447.06037027192843,270h5v30h-5Z" fill="orange"/><path aria-label="date: Oct 05, 2023; precipitation: 1.7" role="graphics-symbol" aria-roledescription="bar" d="M459.07551541383356,198h5v102h-5Z" fill="orange"/><path aria-label="date: Oct 06, 2023; precipitation: 0.6" role="graphics-symbol" aria-roledescription="bar" d="M471.0906605557386,264h5v36h-5Z" fill="orange"/><path aria-label="date: Oct 07, 2023; precipitation: 1.2" role="graphics-symbol" aria-roledescription="bar" d="M483.1058056976438,228h5v72h-5Z" fill="orange"/><path aria-label="date: Oct 08, 2023; precipitation: 1.3" role="graphics-symbol" aria-roledescription="bar" d="M495.1209508395489,222h5v78h-5Z" fill="orange"/><path aria-label="date: Oct 09, 2023; precipitation: 4.6" role="graphics-symbol" aria-roledescription="bar" d="M507.136095981454,24.00000000000002h5v276h-5Z" fill="orange"/><path aria-label="date: Oct 10, 2023; precipitation: 0.8" role="graphics-symbol" aria-roledescription="bar" d="M519.1512411233591,252h5v48h-5Z" fill="orange"/><path aria-label="date: Oct 11, 2023; precipitation: 0.4" role="graphics-symbol" aria-roledescription="bar" d="M531.1663862652642,276h5v24h-5Z" fill="orange"/><path aria-label="date: Oct 12, 2023; precipitation: 2.6" role="graphics-symbol" aria-roledescription="bar" d="M543.1815314071694,144h5v156h-5Z" fill="orange"/><path aria-label="date: Oct 13, 2023; precipitation: 0.2" role="graphics-symbol" aria-roledescription="bar" d="M555.1966765490745,288h5v12h-5Z" fill="orange"/><path aria-label="date: Oct 14, 2023; precipitation: 0.8" role="graphics-symbol" aria-roledescription="bar" d="M567.2118216909796,252h5v48h-5Z" fill="orange"/><path aria-label="date: Oct 15, 2023; precipitation: 0.2" role="graphics-symbol" aria-roledescription="bar" d="M579.2269668328847,288h5v12h-5Z" fill="orange"/><path aria-label="date: Oct 16, 2023; precipitation: 1.4" role="graphics-symbol" aria-roledescription="bar" d="M591.2421119747899,216h5v84h-5Z" fill="orange"/><path aria-label="date: Oct 17, 2023; precipitation: 2" role="graphics-symbol" aria-roledescription="bar" d="M603.257257116695,180h5v120h-5Z" fill="orange"/><path aria-label="date: Oct 18, 2023; precipitation: 0" role="graphics-symbol" aria-roledescription="bar" d="M615.2724022586,300h5v0h-5Z" fill="orange"/><path aria-label="date: Oct 19, 2023; precipitation: 0" role="graphics-symbol" aria-roledescription="bar" d="M627.2875474005051,300h5v0h-5Z" fill="orange"/><path aria-label="date: Oct 20, 2023; precipitation: 0.2" role="graphics-symbol" aria-roledescription="bar" d="M639.3026925424103,288h5v12h-5Z" fill="orange"/><path aria-label="date: Oct 21, 2023; precipitation: 0.8" role="graphics-symbol" aria-roledescription="bar" d="M651.3178376843155,252h5v48h-5Z" fill="orange"/><path aria-label="date: Oct 22, 2023; precipitation: 1.1" role="graphics-symbol" aria-roledescription="bar" d="M663.3329828262206,234h5v66h-5Z" fill="orange"/><path aria-label="date: Oct 23, 2023; precipitation: 1.1" role="graphics-symbol" aria-roledescription="bar" d="M675.3481279681257,234h5v66h-5Z" fill="orange"/><path aria-label="date: Oct 24, 2023; precipitation: 2.6" role="graphics-symbol" aria-roledescription="bar" d="M687.3632731100308,144h5v156h-5Z" fill="orange"/><path aria-label="date: Oct 25, 2023; precipitation: 0.1" role="graphics-symbol" aria-roledescription="bar" d="M699.3784182519358,294h5v6h-5Z" fill="orange"/><path aria-label="date: Oct 26, 2023; precipitation: 0.4" role="graphics-symbol" aria-roledescription="bar" d="M711.393563393841,276h5v24h-5Z" fill="orange"/><path aria-label="date: Oct 27, 2023; precipitation: 0.2" role="graphics-symbol" aria-roledescription="bar" d="M723.4087085357461,288h5v12h-5Z" fill="orange"/><path aria-label="date: Oct 28, 2023; precipitation: 0" role="graphics-symbol" aria-roledescription="bar" d="M735.4238536776512,300h5v0h-5Z" fill="orange"/><path aria-label="date: Oct 29, 2023; precipitation: 0.2" role="graphics-symbol" aria-roledescription="bar" d="M747.4389988195564,288h5v12h-5Z" fill="orange"/><path aria-label="date: Oct 30, 2023; precipitation: 0.7" role="graphics-symbol" aria-roledescription="bar" d="M759.9547750090409,258h5v42h-5Z" fill="orange"/><path aria-label="date: Oct 31, 2023; precipitation: 0.3" role="graphics-symbol" aria-roledescription="bar" d="M771.969920150946,282h5v18h-5Z" fill="orange"/><path aria-label="date: Nov 01, 2023; precipitation: 0" role="graphics-symbol" aria-roledescription="bar" d="M783.9850652928511,300h5v0h-5Z" fill="orange"/><path aria-label="date: Nov 02, 2023; precipitation: 0.6" role="graphics-symbol" aria-roledescription="bar" d="M796.0002104347562,264h5v36h-5Z" fill="orange"/><path aria-label="date: Nov 03, 2023; precipitation: 0.1" role="graphics-symbol" aria-roledescription="bar" d="M808.0153555766612,294h5v6h-5Z" fill="orange"/><path aria-label="date: Nov 04, 2023; precipitation: 0.3" role="graphics-symbol" aria-roledescription="bar" d="M820.0305007185664,282h5v18h-5Z" fill="orange"/><path aria-label="date: Nov 05, 2023; precipitation: 0.7" role="graphics-symbol" aria-roledescription="bar" d="M832.0456458604715,258h5v42h-5Z" fill="orange"/><path aria-label="date: Nov 06, 2023; precipitation: 1.2" role="graphics-symbol" aria-roledescription="bar" d="M844.0607910023767,228h5v72h-5Z" fill="orange"/><path aria-label="date: Nov 07, 2023; precipitation: 0.4" role="graphics-symbol" aria-roledescription="bar" d="M856.0759361442819,276h5v24h-5Z" fill="orange"/><path aria-label="date: Nov 08, 2023; precipitation: 1.3" role="graphics-symbol" aria-roledescription="bar" d="M868.091081286187,222h5v78h-5Z" fill="orange"/><path aria-label="date: Nov 09, 2023; precipitation: 0.6" role="graphics-symbol" aria-roledescription="bar" d="M880.1062264280921,264h5v36h-5Z" fill="orange"/><path aria-label="date: Nov 10, 2023; precipitation: 0.3" role="graphics-symbol" aria-roledescription="bar" d="M892.1213715699971,282h5v18h-5Z" fill="orange"/><path aria-label="date: Nov 11, 2023; precipitation: 0.6" role="graphics-symbol" aria-roledescription="bar" d="M904.1365167119022,264h5v36h-5Z" fill="orange"/><path aria-label="date: Nov 12, 2023; precipitation: 0.3" role="graphics-symbol" aria-roledescription="bar" d="M916.1516618538074,282h5v18h-5Z" fill="orange"/><path aria-label="date: Nov 13, 2023; precipitation: 0.4" role="graphics-symbol" aria-roledescription="bar" d="M928.1668069957125,276h5v24h-5Z" fill="orange"/><path aria-label="date: Nov 14, 2023; precipitation: 0.2" role="graphics-symbol" aria-roledescription="bar" d="M940.1819521376176,288h5v12h-5Z" fill="orange"/><path aria-label="date: Nov 15, 2023; precipitation: 0.6" role="graphics-symbol" aria-roledescription="bar" d="M952.1970972795228,264h5v36h-5Z" fill="orange"/><path aria-label="date: Nov 16, 2023; precipitation: 0" role="graphics-symbol" aria-roledescription="bar" d="M964.212242421428,300h5v0h-5Z" fill="orange"/><path aria-label="date: Nov 17, 2023; precipitation: 0" role="graphics-symbol" aria-roledescription="bar" d="M976.227387563333,300h5v0h-5Z" fill="orange"/><path aria-label="date: Nov 18, 2023; precipitation: 3.3" role="graphics-symbol" aria-roledescription="bar" d="M988.2425327052381,102.00000000000003h5v197.99999999999997h-5Z" fill="orange"/><path aria-label="date: Nov 19, 2023; precipitation: 0.3" role="graphics-symbol" aria-roledescription="bar" d="M1000.2576778471432,282h5v18h-5Z" fill="orange"/><path aria-label="date: Nov 20, 2023; precipitation: 0.5" role="graphics-symbol" aria-roledescription="bar" d="M1012.2728229890483,270h5v30h-5Z" fill="orange"/><path aria-label="date: Nov 21, 2023; precipitation: 0" role="graphics-symbol" aria-roledescription="bar" d="M1024.2879681309535,300h5v0h-5Z" fill="orange"/><path aria-label="date: Nov 22, 2023; precipitation: 0.4" role="graphics-symbol" aria-roledescription="bar" d="M1036.3031132728586,276h5v24h-5Z" fill="orange"/><path aria-label="date: Nov 23, 2023; precipitation: 0" role="graphics-symbol" aria-roledescription="bar" d="M1048.3182584147637,300h5v0h-5Z" fill="orange"/><path aria-label="date: Nov 24, 2023; precipitation: 0.4" role="graphics-symbol" aria-roledescription="bar" d="M1060.3334035566688,276h5v24h-5Z" fill="orange"/><path aria-label="date: Nov 25, 2023; precipitation: 2.5" role="graphics-symbol" aria-roledescription="bar" d="M1072.348548698574,150h5v150h-5Z" fill="orange"/><path aria-label="date: Nov 26, 2023; precipitation: 3.5" role="graphics-symbol" aria-roledescription="bar" d="M1084.363693840479,90.00000000000001h5v210h-5Z" fill="orange"/><path aria-label="date: Nov 27, 2023; precipitation: 0.1" role="graphics-symbol" aria-roledescription="bar" d="M1096.3788389823842,294h5v6h-5Z" fill="orange"/><path aria-label="date: Nov 28, 2023; precipitation: 0.5" role="graphics-symbol" aria-roledescription="bar" d="M1108.3939841242893,270h5v30h-5Z" fill="orange"/><path aria-label="date: Nov 29, 2023; precipitation: 2" role="graphics-symbol" aria-roledescription="bar" d="M1120.4091292661944,180h5v120h-5Z" fill="orange"/><path aria-label="date: Nov 30, 2023; precipitation: 0.2" role="graphics-symbol" aria-roledescription="bar" d="M1132.4242744080996,288h5v12h-5Z" fill="orange"/><path aria-label="date: Dec 01, 2023; precipitation: 0.4" role="graphics-symbol" aria-roledescription="bar" d="M1144.4394195500047,276h5v24h-5Z" fill="orange"/><path aria-label="date: Dec 02, 2023; precipitation: 0.4" role="graphics-symbol" aria-roledescription="bar" d="M1156.4545646919098,276h5v24h-5Z" fill="orange"/><path aria-label="date: Dec 03, 2023; precipitation: 0.6" role="graphics-symbol" aria-roledescription="bar" d="M1168.469709833815,264h5v36h-5Z" fill="orange"/><path aria-label="date: Dec 04, 2023; precipitation: 1.4" role="graphics-symbol" aria-roledescription="bar" d="M1180.48485497572,216h5v84h-5Z" fill="orange"/><path aria-label="date: Dec 05, 2023; precipitation: 0.1" role="graphics-symbol" aria-roledescription="bar" d="M1192.5000001176252,294h5v6h-5Z" fill="orange"/></g></g><path class="foreground" aria-hidden="true" d="" display="none"/></g></g></g><defs><clipPath id="clip1"><rect x="0" y="0" width="1200" height="300"/></clipPath><clipPath id="clip2"><rect x="0" y="0" width="1200" height="300"/></clipPath></defs></svg>