<svg xmlns="http://www.w3.org/2000/svg" xmlns:xlink="http://www.w3.org/1999/xlink" version="1.1" class="marks" width="1255" height="342" viewBox="0 0 1255 342"><rect width="1255" height="342" fill="white"/><g fill="none" stroke-miterlimit="10" transform="translate(39,5)"><g class="mark-group role-frame root" role="graphics-object" aria-roledescription="group mark container"><g transform="translate(0,0)"><path class="background" aria-hidden="true" d="M0.5,0.5h1200v300h-1200Z" stroke="#ddd"/><g><g class="mark-group role-axis" aria-hidden="true"><g transform="translate(0.5,300.5)"><path class="background" aria-hidden="true" d="M0,0h0v0h0Z" pointer-events="none"/><g><g class="mark-rule role-axis-grid" pointer-events="none"><line transform="translate(5,-300)" x2="0" y2="300" stroke="#ddd" stroke-width="1" opacity="1"/><line transform="translate(40,-300)" x2="0" y2="300" stroke="#ddd" stroke-width="1" opacity="1"/><line transform="translate(75,-300)" x2="0" y2="300" stroke="#ddd" stroke-width="1" opacity="1"/><line transform="translate(111,-300)" x2="0" y2="300" stroke="#ddd" stroke-width="1" opacity="1"/><line transform="translate(146,-300)" x2="0" y2="300" stroke="#ddd" stroke-width="1" opacity="1"/><line transform="translate(181,-300)" x2="0" y2="300" stroke="#ddd" stroke-width="1" opacity="1"/><line transform="translate(216,-300)" x2="0" y2="300" stroke="#ddd" stroke-width="1" opacity="1"/><line transform="translate(251,-300)" x2="0" y2="300" stroke="#ddd" stroke-width="1" opacity="1"/><line transform="translate(286,-300)" x2="0" y2="300" stroke="#ddd" stroke-width="1" opacity="1"/><line transform="translate(321,-300)" x2="0" y2="300" stroke="#ddd" stroke-width="1" opacity="1"/><line transform="translate(356,-300)" x2="0" y2="300" stroke="#ddd" stroke-width="1" opacity="1"/><line transform="translate(391,-300)" x2="0" y2="300" stroke="#ddd" stroke-width="1" opacity="1"/><line transform="translate(426,-300)" x2="0" y2="300" stroke="#ddd" stroke-width="1" opacity="1"/><line transform="translate(461,-300)" x2="0" y2="300" stroke="#ddd" stroke-width="1" opacity="1"/><line transform="translate(496,-300)" x2="0" y2="300" stroke="#ddd" stroke-width="1" opacity="1"/><line transform="translate(531,-300)" x2="0" y2="300" stroke="#ddd" stroke-width="1" opacity="1"/><line transform="translate(566,-300)" x2="0" y2="300" stroke="#ddd" stroke-width="1" opacity="1"/><line transform="translate(601,-300)" x2="0" y2="300" stroke="#ddd" stroke-width="1" opacity="1"/><line transform="translate(636,-300)" x2="0" y2="300" stroke="#ddd" stroke-width="1" opacity="1"/><line transform="translate(671,-300)" x2="0" y2="300" stroke="#ddd" stroke-width="1" opacity="1"/><line transform="translate(706,-300)" x2="0" y2="300" stroke="#ddd" stroke-width="1" opacity="1"/><line transform="translate(741,-300)" x2="0" y2="300" stroke="#ddd" stroke-width="1" opacity="1"/><line transform="translate(776,-300)" x2="0" y2="300" stroke="#ddd" stroke-width="1" opacity="1"/><line transform="translate(810,-300)" x2="0" y2="300" stroke="#ddd" stroke-width="1" opacity="1"/><line transform="translate(845,-300)" x2="0" y2="300" stroke="#ddd" stroke-width="1" opacity="1"/><line transform="translate(880,-300)" x2="0" y2="300" stroke="#ddd" stroke-width="1" opacity="1"/><line transform="translate(915,-300)" x2="0" y2="300" stroke="#ddd" stroke-width="1" opacity="1"/><line transform="translate(950,-300)" x2="0" y2="300" stroke="#ddd" stroke-width="1" opacity="1"/><line transform="translate(985,-300)" x2="0" y2="300" stroke="#ddd" stroke-width="1" opacity="1"/><line transform="translate(1020,-300)" x2="0" y2="300" stroke="#ddd" stroke-width="1" opacity="1"/><line transform="translate(1055,-300)" x2="0" y2="300" stroke="#ddd" stroke-width="1" opacity="1"/><line transform="translate(1090,-300)" x2="0" y2="300" stroke="#ddd" stroke-width="1" opacity="1"/><line transform="translate(1125,-300)" x2="0" y2="300" stroke="#ddd" stroke-width="1" opacity="1"/><line transform="translate(1160,-300)" x2="0" y2="300" stroke="#ddd" stroke-width="1" opacity="1"/><line transform="translate(1195,-300)" x2="0" y2="300" stroke="#ddd" stroke-width="1" opacity="1"/></g></g><path class="foreground" aria-hidden="true" d="" pointer-events="none" display="none"/></g></g><g class="mark-group role-axis" aria-hidden="true"><g transform="translate(0.5,0.5)"><path class="background" aria-hidden="true" d="M0,0h0v0h0Z" pointer-events="none"/><g><g class="mark-rule role-axis-grid" pointer-events="none"><line transform="translate(0,300)" x2="1200" y2="0" stroke="#ddd" stroke-width="1" opacity="1"/><line transform="translate(0,242)" x2="1200" y2="0" stroke="#ddd" stroke-width="1" opacity="1"/><line transform="translate(0,185)" x2="1200" y2="0" stroke="#ddd" stroke-width="1" opacity="1"/><line transform="translate(0,127)" x2="1200" y2="0" stroke="#ddd" stroke-width="1" opacity="1"/><line transform="translate(0,69)" x2="1200" y2="0" stroke="#ddd" stroke-width="1" opacity="1"/><line transform="translate(0,12)" x2="1200" y2="0" stroke="#ddd" stroke-width="1" opacity="1"/></g></g><path class="foreground" aria-hidden="true" d="" pointer-events="none" display="none"/></g></g><g class="mark-group role-axis" role="graphics-symbol" aria-roledescription="axis" aria-label="X-axis titled 'date' for a time scale with values from Thursday, 26 October 2023, 8:34:02 PM to Thursday, 30 November 2023, 3:25:57 AM"><g transform="translate(0.5,300.5)"><path class="background" aria-hidden="true" d="M0,0h0v0h0Z" pointer-events="none"/><g><g class="mark-rule role-axis-tick" pointer-events="none"><line transform="translate(5,0)" x2="0" y2="5" stroke="#888" stroke-width="1" opacity="1"/><line transform="translate(40,0)" x2="0" y2="5" stroke="#888" stroke-width="1" opacity="1"/><line transform="translate(75,0)" x2="0" y2="5" stroke="#888" stroke-width="1" opacity="1"/><line transform="translate(111,0)" x2="0" y2="5" stroke="#888" stroke-width="1" opacity="1"/><line transform="translate(146,0)" x2="0" y2="5" stroke="#888" stroke-width="1" opacity="1"/><line transform="translate(181,0)" x2="0" y2="5" stroke="#888" stroke-width="1" opacity="1"/><line transform="translate(216,0)" x2="0" y2="5" stroke="#888" stroke-width="1" opacity="1"/><line transform="translate(251,0)" x2="0" y2="5" stroke="#888" stroke-width="1" opacity="1"/><line transform="translate(286,0)" x2="0" y2="5" stroke="#888" stroke-width="1" opacity="1"/><line transform="translate(321,0)" x2="0" y2="5" stroke="#888" stroke-width="1" opacity="1"/><line transform="translate(356,0)" x2="0" y2="5" stroke="#888" stroke-width="1" opacity="1"/><line transform="translate(391,0)" x2="0" y2="5" stroke="#888" stroke-width="1" opacity="1"/><line transform="translate(426,0)" x2="0" y2="5" stroke="#888" stroke-width="1" opacity="1"/><line transform="translate(461,0)" x2="0" y2="5" stroke="#888" stroke-width="1" opacity="1"/><line transform="translate(496,0)" x2="0" y2="5" stroke="#888" stroke-width="1" opacity="1"/><line transform="translate(531,0)" x2="0" y2="5" stroke="#888" stroke-width="1" opacity="1"/><line transform="translate(566,0)" x2="0" y2="5" stroke="#888" stroke-width="1" opacity="1"/><line transform="translate(601,0)" x2="0" y2="5" stroke="#888" stroke-width="1" opacity="1"/><line transform="translate(636,0)" x2="0" y2="5" stroke="#888" stroke-width="1" opacity="1"/><line transform="translate(671,0)" x2="0" y2="5" stroke="#888" stroke-width="1" opacity="1"/><line transform="translate(706,0)" x2="0" y2="5" stroke="#888" stroke-width="1" opacity="1"/><line transform="translate(741,0)" x2="0" y2="5" stroke="#888" stroke-width="1" opacity="1"/><line transform="translate(776,0)" x2="0" y2="5" stroke="#888" stroke-width="1" opacity="1"/><line transform="translate(810,0)" x2="0" y2="5" stroke="#888" stroke-width="1" opacity="1"/><line transform="translate(845,0)" x2="0" y2="5" stroke="#888" stroke-width="1" opacity="1"/><line transform="translate(880,0)" x2="0" y2="5" stroke="#888" stroke-width="1" opacity="1"/><line transform="translate(915,0)" x2="0" y2="5" stroke="#888" stroke-width="1" opacity="1"/><line transform="translate(950,0)" x2="0" y2="5" stroke="#888" stroke-width="1" opacity="1"/><line transform="translate(985,0)" x2="0" y2="5" stroke="#888" stroke-width="1" opacity="1"/><line transform="translate(1020,0)" x2="0" y2="5" stroke="#888" stroke-width="1" opacity="1"/><line transform="translate(1055,0)" x2="0" y2="5" stroke="#888" stroke-width="1" opacity="1"/><line transform="translate(1090,0)" x2="0" y2="5" stroke="#888" stroke-width="1" opacity="1"/><line transform="translate(1125,0)" x2="0" y2="5" stroke="#888" stroke-width="1" opacity="1"/><line transform="translate(1160,0)" x2="0" y2="5" stroke="#888" stroke-width="1" opacity="1"/><line transform="translate(1195,0)" x2="0" y2="5" stroke="#888" stroke-width="1" opacity="1"/></g><g class="mark-text role-axis-label" pointer-events="none"><text text-anchor="middle" transform="translate(5.00000032536323,15)" font-family="sans-serif" font-size="10px" fill="#000" opacity="1">Fri 27</text><text text-anchor="middle" transform="translate(39.95716066085024,15)" font-family="sans-serif" font-size="10px" fill="#000" opacity="0">Sat 28</text><text text-anchor="middle" transform="translate(74.91432099633725,15)" font-family="sans-serif" font-size="10px" fill="#000" opacity="1">Oct 29</text><text text-anchor="middle" transform="translate(111.32802967913621,15)" font-family="sans-serif" font-size="10px" fill="#000" opacity="0">Mon 30</text><text text-anchor="middle" transform="translate(146.28519001462323,15)" font-family="sans-serif" font-size="10px" fill="#000" opacity="1">Tue 31</text><text text-anchor="middle" transform="translate(181.24235035011023,15)" font-family="sans-serif" font-size="10px" fill="#000" opacity="0">November</text><text text-anchor="middle" transform="translate(216.19951068559723,15)" font-family="sans-serif" font-size="10px" fill="#000" opacity="1">Thu 02</text><text text-anchor="middle" transform="translate(251.15667102108426,15)" font-family="sans-serif" font-size="10px" fill="#000" opacity="0">Fri 03</text><text text-anchor="middle" transform="translate(286.11383135657127,15)" font-family="sans-serif" font-size="10px" fill="#000" opacity="1">Sat 04</text><text text-anchor="middle" transform="translate(321.07099169205827,15)" font-family="sans-serif" font-size="10px" fill="#000" opacity="0">Nov 05</text><text text-anchor="middle" transform="translate(356.0281520275453,15)" font-family="sans-serif" font-size="10px" fill="#000" opacity="1">Mon 06</text><text text-anchor="middle" transform="translate(390.98531236303234,15)" font-family="sans-serif" font-size="10px" fill="#000" opacity="0">Tue 07</text><text text-anchor="middle" transform="translate(425.94247269851934,15)" font-family="sans-serif" font-size="10px" fill="#000" opacity="1">Wed 08</text><text text-anchor="middle" transform="translate(460.89963303400634,15)" font-family="sans-serif" font-size="10px" fill="#000" opacity="0">Thu 09</text><text text-anchor="middle" transform="translate(495.85679336949335,15)" font-family="sans-serif" font-size="10px" fill="#000" opacity="1">Fri 10</text><text text-anchor="middle" transform="translate(530.8139537049803,15)" font-family="sans-serif" font-size="10px" fill="#000" opacity="0">Sat 11</text><text text-anchor="middle" transform="translate(565.7711140404674,15)" font-family="sans-serif" font-size="10px" fill="#000" opacity="1">Nov 12</text><text text-anchor="middle" transform="translate(600.7282743759544,15)" font-family="sans-serif" font-size="10px" fill="#000" opacity="0">Mon 13</text><text text-anchor="middle" transform="translate(635.6854347114413,15)" font-family="sans-serif" font-size="10px" fill="#000" opacity="1">Tue 14</text><text text-anchor="middle" transform="translate(670.6425950469284,15)" font-family="sans-serif" font-size="10px" fill="#000" opacity="0">Wed 15</text><text text-anchor="middle" transform="translate(705.5997553824154,15)" font-family="sans-serif" font-size="10px" fill="#000" opacity="1">Thu 16</text><text text-anchor="middle" transform="translate(740.5569157179024,15)" font-family="sans-serif" font-size="10px" fill="#000" opacity="0">Fri 17</text><text text-anchor="middle" transform="translate(775.5140760533894,15)" font-family="sans-serif" font-size="10px" fill="#000" opacity="1">Sat 18</text><text text-anchor="middle" transform="translate(810.4712363888764,15)" font-family="sans-serif" font-size="10px" fill="#000" opacity="0">Nov 19</text><text text-anchor="middle" transform="translate(845.4283967243634,15)" font-family="sans-serif" font-size="10px" fill="#000" opacity="1">Mon 20</text><text text-anchor="middle" transform="translate(880.3855570598505,15)" font-family="sans-serif" font-size="10px" fill="#000" opacity="0">Tue 21</text><text text-anchor="middle" transform="translate(915.3427173953374,15)" font-family="sans-serif" font-size="10px" fill="#000" opacity="1">Wed 22</text><text text-anchor="middle" transform="translate(950.2998777308245,15)" font-family="sans-serif" font-size="10px" fill="#000" opacity="0">Thu 23</text><text text-anchor="middle" transform="translate(985.2570380663115,15)" font-family="sans-serif" font-size="10px" fill="#000" opacity="1">Fri 24</text><text text-anchor="middle" transform="translate(1020.2141984017985,15)" font-family="sans-serif" font-size="10px" fill="#000" opacity="0">Sat 25</text><text text-anchor="middle" transform="translate(1055.1713587372856,15)" font-family="sans-serif" font-size="10px" fill="#000" opacity="1">Nov 26</text><text text-anchor="middle" transform="translate(1090.1285190727726,15)" font-family="sans-serif" font-size="10px" fill="#000" opacity="0">Mon 27</text><text text-anchor="middle" transform="translate(1125.0856794082595,15)" font-family="sans-serif" font-size="10px" fill="#000" opacity="1">Tue 28</text><text text-anchor="middle" transform="translate(1160.0428397437465,15)" font-family="sans-serif" font-size="10px" fill="#000" opacity="0">Wed 29</text><text text-anchor="middle" transform="translate(1195.0000000792336,15)" font-family="sans-serif" font-size="10px" fill="#000" opacity="1">Thu 30</text></g><g class="mark-rule role-axis-domain" pointer-events="none"><line transform="translate(0,0)" x2="1200" y2="0" stroke="#888" stroke-width="1" opacity="1"/></g><g class="mark-text role-axis-title" pointer-events="none"><text text-anchor="middle" transform="translate(600,30)" font-family="sans-serif" font-size="11px" font-weight="bold" fill="#000" opacity="1">date</text></g></g><path class="foreground" aria-hidden="true" d="" pointer-events="none" display="none"/></g></g><g class="mark-group role-axis" role="graphics-symbol" aria-roledescription="axis" aria-label="Y-axis titled 'min, max, mean' for a linear scale with values from 0 to 26"><g transform="translate(0.5,0.5)"><path class="background" aria-hidden="true" d="M0,0h0v0h0Z" pointer-events="none"/><g><g class="mark-rule role-axis-tick" pointer-events="none"><line transform="translate(0,300)" x2="-5" y2="0" stroke="#888" stroke-width="1" opacity="1"/><line transform="translate(0,242)" x2="-5" y2="0" stroke="#888" stroke-width="1" opacity="1"/><line transform="translate(0,185)" x2="-5" y2="0" stroke="#888" stroke-width="1" opacity="1"/><line transform="translate(0,127)" x2="-5" y2="0" stroke="#888" stroke-width="1" opacity="1"/><line transform="translate(0,69)" x2="-5" y2="0" stroke="#888" stroke-width="1" opacity="1"/><line transform="translate(0,12)" x2="-5" y2="0" stroke="#888" stroke-width="1" opacity="1"/></g><g class="mark-text role-axis-label" pointer-events="none"><text text-anchor="end" transform="translate(-7,303)" font-family="sans-serif" font-size="10px" fill="#000" opacity="1">0</text><text text-anchor="end" transform="translate(-7,245.30769230769232)" font-family="sans-serif" font-size="10px" fill="#000" opacity="1">5</text><text text-anchor="end" transform="translate(-7,187.6153846153846)" font-family="sans-serif" font-size="10px" fill="#000" opacity="1">10</text><text text-anchor="end" transform="translate(-7,129.92307692307693)" font-family="sans-serif" font-size="10px" fill="#000" opacity="1">15</text><text text-anchor="end" transform="translate(-7,72.23076923076921)" font-family="sans-serif" font-size="10px" fill="#000" opacity="1">20</text><text text-anchor="end" transform="translate(-7,14.538461538461531)" font-family="sans-serif" font-size="10px" fill="#000" opacity="1">25</text></g><g class="mark-rule role-axis-domain" pointer-events="none"><line transform="translate(0,300)" x2="0" y2="-300" stroke="#888" stroke-width="1" opacity="1"/></g><g class="mark-text role-axis-title" pointer-events="none"><text text-anchor="middle" transform="translate(-22.123046875,150) rotate(-90) translate(0,-2)" font-family="sans-serif" font-size="11px" font-weight="bold" fill="#000" opacity="1">min, max, mean</text></g></g><path class="foreground" aria-hidden="true" d="" pointer-events="none" display="none"/></g></g><g class="mark-area role-mark view_2_marks" clip-path="url(#clip3)" role="graphics-object" aria-roledescription="area mark container"><path aria-label="date: Oct 27, 2023; min: 0; max: 2.09999990463" role="graphics-symbol" aria-roledescription="area mark" d="M5,300L39.957,300L74.914,300L111.328,293.077L146.285,296.538L181.242,300L216.2,300L251.157,300L286.114,300L321.071,293.077L356.028,296.538L390.985,289.615L425.942,289.615L460.9,300L495.857,300L530.814,293.077L565.771,300L600.728,296.538L635.685,300L670.643,286.154L705.6,300L740.557,300L775.514,286.154L810.471,300L845.428,296.538L880.386,300L915.343,300L950.3,300L985.257,296.538L1020.214,275.769L1055.171,265.385L1090.129,300L1125.086,300L1160.043,296.538L1195,300L1195,192.692L1160.043,130.385L1125.086,161.538L1090.129,223.846L1055.171,19.615L1020.214,88.846L985.257,234.231L950.3,244.615L915.343,255L880.386,289.615L845.428,230.769L810.471,189.231L775.514,123.462L740.557,289.615L705.6,223.846L670.643,175.385L635.685,255L600.728,268.846L565.771,268.846L530.814,196.154L495.857,258.462L460.9,161.538L425.942,130.385L390.985,178.846L356.028,203.077L321.071,227.308L286.114,261.923L251.157,275.769L216.2,272.308L181.242,251.538L146.285,182.308L111.328,206.538L74.914,210L39.957,282.692L5,275.769Z" fill="orange" opacity="0.25"/></g><g class="mark-rule role-mark layer_1_marks" clip-path="url(#clip4)" role="graphics-object" aria-roledescription="rule mark container" pointer-events="none"><line aria-label="date: Nov 26, 2023" role="graphics-symbol" aria-roledescription="rule mark" transform="translate(1056.6279070845974,0)" x2="0" y2="300" stroke="black"/></g><g class="mark-rect role-mark layer_2_marks" clip-path="url(#clip5)" role="graphics-object" aria-roledescription="rect mark container"><path aria-label="date: Oct 27, 2023; mean: 0.75882345438" role="graphics-symbol" aria-roledescription="bar" d="M2.5000003253632297,291.24434475715344h5v8.755655242846558h-5Z" fill="orange"/><path aria-label="date: Oct 28, 2023; mean: 0.576470553875" role="graphics-symbol" aria-roledescription="bar" d="M37.45716066085024,293.34841668605804h5v6.651583313941956h-5Z" fill="orange"/><path aria-label="date: Oct 29, 2023; mean: 1.27647042274" role="graphics-symbol" aria-roledescription="bar" d="M72.41432099633725,285.27149512217596h5v14.728504877824037h-5Z" fill="orange"/><path aria-label="date: Oct 30, 2023; mean: 2.0823533535" role="graphics-symbol" aria-roledescription="bar" d="M108.82802967913621,275.9728459211496h5v24.0271540788504h-5Z" fill="orange"/><path aria-label="date: Oct 31, 2023; mean: 3.07058811188" role="graphics-symbol" aria-roledescription="bar" d="M143.78519001462323,264.5701371706449h5v35.4298628293551h-5Z" fill="orange"/><path aria-label="date: Nov 01, 2023; mean: 0.911764681339" role="graphics-symbol" aria-roledescription="bar" d="M178.74235035011023,289.47963829223926h5v10.520361707760742h-5Z" fill="orange"/><path aria-label="date: Nov 02, 2023; mean: 0.905882358551" role="graphics-symbol" aria-roledescription="bar" d="M213.69951068559723,289.54751124748816h5v10.45248875251184h-5Z" fill="orange"/><path aria-label="date: Nov 03, 2023; mean: 0.741176366806" role="graphics-symbol" aria-roledescription="bar" d="M248.65667102108426,291.44796499839197h5v8.552035001608033h-5Z" fill="orange"/><path aria-label="date: Nov 04, 2023; mean: 1.27647089958" role="graphics-symbol" aria-roledescription="bar" d="M283.61383135657127,285.27148962020874h5v14.72851037979126h-5Z" fill="orange"/><path aria-label="date: Nov 05, 2023; mean: 2.25882387161" role="graphics-symbol" aria-roledescription="bar" d="M318.57099169205827,273.9366476352398h5v26.063352364760192h-5Z" fill="orange"/><path aria-label="date: Nov 06, 2023; mean: 4.47646999359" role="graphics-symbol" aria-roledescription="bar" d="M353.5281520275453,248.34842315086954h5v51.651576849130464h-5Z" fill="orange"/><path aria-label="date: Nov 07, 2023; mean: 2.64705848694" role="graphics-symbol" aria-roledescription="bar" d="M388.48531236303234,269.4570174584022h5v30.54298254159778h-5Z" fill="orange"/><path aria-label="date: Nov 08, 2023; mean: 4.61764669418" role="graphics-symbol" aria-roledescription="bar" d="M423.44247269851934,246.71946122096136h5v53.280538779038636h-5Z" fill="orange"/><path aria-label="date: Nov 09, 2023; mean: 3.33529400826" role="graphics-symbol" aria-roledescription="bar" d="M458.39963303400634,261.5158383662884h5v38.48416163371161h-5Z" fill="orange"/><path aria-label="date: Nov 10, 2023; mean: 0.958823680878" role="graphics-symbol" aria-roledescription="bar" d="M493.35679336949335,288.93664983602673h5v11.063350163973269h-5Z" fill="orange"/><path aria-label="date: Nov 11, 2023; mean: 2.40588259697" role="graphics-symbol" aria-roledescription="bar" d="M528.3139537049803,272.23981618881226h5v27.760183811187744h-5Z" fill="orange"/><path aria-label="date: Nov 12, 2023; mean: 0.835294187069" role="graphics-symbol" aria-roledescription="bar" d="M563.2711140404674,290.3619901492046h5v9.638009850795413h-5Z" fill="orange"/><path aria-label="date: Nov 13, 2023; mean: 1.17647075653" role="graphics-symbol" aria-roledescription="bar" d="M598.2282743759544,286.4253374246451h5v13.574662575354921h-5Z" fill="orange"/><path aria-label="date: Nov 14, 2023; mean: 1.3823530674" role="graphics-symbol" aria-roledescription="bar" d="M633.1854347114413,284.04977229925305h5v15.95022770074695h-5Z" fill="orange"/><path aria-label="date: Nov 15, 2023; mean: 4.13529396057" role="graphics-symbol" aria-roledescription="bar" d="M668.1425950469284,252.28506968571588h5v47.71493031428412h-5Z" fill="orange"/><path aria-label="date: Nov 16, 2023; mean: 1" role="graphics-symbol" aria-roledescription="bar" d="M703.0997553824154,288.46153846153845h5v11.538461538461547h-5Z" fill="orange"/><path aria-label="date: Nov 17, 2023; mean: 0.252941220999" role="graphics-symbol" aria-roledescription="bar" d="M738.0569157179024,297.08144745001425h5v2.9185525499857476h-5Z" fill="orange"/><path aria-label="date: Nov 18, 2023; mean: 6.41764783859" role="graphics-symbol" aria-roledescription="bar" d="M773.0140760533894,225.95021724700928h5v74.04978275299072h-5Z" fill="orange"/><path aria-label="date: Nov 19, 2023; mean: 2.24117660522" role="graphics-symbol" aria-roledescription="bar" d="M807.9712363888764,274.140269939716h5v25.859730060283994h-5Z" fill="orange"/><path aria-label="date: Nov 20, 2023; mean: 1.77647030354" role="graphics-symbol" aria-roledescription="bar" d="M842.9283967243634,279.502265728437h5v20.49773427156299h-5Z" fill="orange"/><path aria-label="date: Nov 21, 2023; mean: 0.141176491976" role="graphics-symbol" aria-roledescription="bar" d="M877.8855570598505,298.3710404772025h5v1.6289595227975155h-5Z" fill="orange"/><path aria-label="date: Nov 22, 2023; mean: 1.1882352829" role="graphics-symbol" aria-roledescription="bar" d="M912.8427173953374,286.28959288963904h5v13.710407110360961h-5Z" fill="orange"/><path aria-label="date: Nov 23, 2023; mean: 0.317647099495" role="graphics-symbol" aria-roledescription="bar" d="M947.7998777308245,296.33484115967383h5v3.6651588403261712h-5Z" fill="orange"/><path aria-label="date: Nov 24, 2023; mean: 1.99999988079" role="graphics-symbol" aria-roledescription="bar" d="M982.7570380663115,276.9230782985687h5v23.076921701431274h-5Z" fill="orange"/><path aria-label="date: Nov 25, 2023; mean: 8.36470794678" role="graphics-symbol" aria-roledescription="bar" d="M1017.7141984017985,203.48413907564603h5v96.51586092435397h-5Z" fill="orange"/><path aria-label="date: Nov 26, 2023; mean: 11.501958847" role="graphics-symbol" aria-roledescription="bar" d="M1052.6713587372856,167.2850902263935h5v132.7149097736065h-5Z" fill="orange"/><path aria-label="date: Nov 27, 2023; mean: 1.07843124866" role="graphics-symbol" aria-roledescription="bar" d="M1087.6285190727726,287.5565625154055h5v12.443437484594483h-5Z" fill="orange"/><path aria-label="date: Nov 28, 2023; mean: 1.58039224148" role="graphics-symbol" aria-roledescription="bar" d="M1122.5856794082595,281.76470490602344h5v18.23529509397656h-5Z" fill="orange"/><path aria-label="date: Nov 29, 2023; mean: 4.39804029465" role="graphics-symbol" aria-roledescription="bar" d="M1157.5428397437465,249.25338121560904h5v50.74661878439096h-5Z" fill="orange"/><path aria-label="date: Nov 30, 2023; mean: 1.49411761761" role="graphics-symbol" aria-roledescription="bar" d="M1192.5000000792336,282.7601813353025h5v17.23981866469751h-5Z" fill="orange"/></g></g><path class="foreground" aria-hidden="true" d="" display="none"/></g></g></g><defs><clipPath id="clip3"><rect x="0" y="0" width="1200" height="300"/></clipPath><clipPath id="clip4"><rect x="0" y="0" width="1200" height="300"/></clipPath><clipPath id="clip5"><rect x="0" y="0" width="1200" height="300"/></clipPath></defs></svg>